<svg xmlns="http://www.w3.org/2000/svg" viewBox="0 0 120 140" role="img" aria-labelledby="title desc">
  <title id="title">Escudo retro genérico</title>
  <desc id="desc">Escudo triangular con franjas diagonales en tonos azul y dorado.</desc>
  <defs>
    <linearGradient id="crest-bg" x1="0%" y1="0%" x2="100%" y2="100%">
      <stop offset="0%" stop-color="#2563eb" />
      <stop offset="100%" stop-color="#0ea5e9" />
    </linearGradient>
    <linearGradient id="crest-stripe" x1="0%" y1="0%" x2="100%" y2="100%">
      <stop offset="0%" stop-color="#fbbf24" />
      <stop offset="100%" stop-color="#f97316" />
    </linearGradient>
  </defs>
  <path d="M60 5 12 26v51c0 32 22 51 48 58 26-7 48-26 48-58V26L60 5z" fill="url(#crest-bg)" stroke="#0f172a" stroke-width="4" stroke-linejoin="round" />
  <path d="M20 40 92 16" stroke="#38bdf8" stroke-width="6" stroke-linecap="round" opacity="0.5" />
  <path d="M30 78 100 44" stroke="#38bdf8" stroke-width="6" stroke-linecap="round" opacity="0.35" />
  <path d="M16 92 104 52" stroke="#bae6fd" stroke-width="6" stroke-linecap="round" opacity="0.3" />
  <path d="M28 108 104 76" stroke="url(#crest-stripe)" stroke-width="12" stroke-linecap="round" />
  <circle cx="60" cy="56" r="18" fill="#f8fafc" opacity="0.9" />
  <path d="M60 40a16 16 0 0 1 16 16c0 8-7 20-16 28-9-8-16-20-16-28a16 16 0 0 1 16-16z" fill="url(#crest-stripe)" />
  <path d="M60 50a6 6 0 1 1-6 6 6 6 0 0 1 6-6z" fill="#0f172a" />
</svg>
