<!--
  Sprite de iconos para IA Soccer. Identificadores disponibles:
  - icon-results
  - icon-league
  - icon-calendar
  - icon-lineup
  - icon-tactics
  - icon-opponent
  - icon-transfers
  - icon-staff
  - icon-finances
  - icon-decisions
  - icon-stadium
  - icon-club-shield
-->
<svg xmlns="http://www.w3.org/2000/svg" aria-hidden="true" style="display:none">
  <symbol id="icon-results" viewBox="0 0 24 24">
    <rect x="3" y="4" width="18" height="16" rx="2" ry="2" fill="none" stroke="currentColor" stroke-width="1.8" />
    <path d="M12 4v16" stroke="currentColor" stroke-width="1.8" stroke-linecap="round" />
    <circle cx="8" cy="9" r="1.6" fill="currentColor" />
    <circle cx="8" cy="15" r="1.6" fill="currentColor" />
    <path d="M16 9h2M16 12h2M16 15h2" stroke="currentColor" stroke-width="1.8" stroke-linecap="round" />
  </symbol>
  <symbol id="icon-league" viewBox="0 0 24 24">
    <path d="M6 4h12l-1 7a5 5 0 0 1-10 0L6 4Z" fill="none" stroke="currentColor" stroke-width="1.8" stroke-linejoin="round" />
    <path d="M8 20c2 0 3-2 4-4 1 2 2 4 4 4" fill="none" stroke="currentColor" stroke-width="1.8" stroke-linecap="round" />
  </symbol>
  <symbol id="icon-calendar" viewBox="0 0 24 24">
    <rect x="3" y="5" width="18" height="16" rx="2" ry="2" fill="none" stroke="currentColor" stroke-width="1.8" />
    <path d="M7 3v4M17 3v4M3 10h18" stroke="currentColor" stroke-width="1.8" stroke-linecap="round" />
    <rect x="7" y="13" width="3" height="3" rx="1" fill="currentColor" />
    <rect x="14" y="13" width="3" height="3" rx="1" fill="currentColor" />
  </symbol>
  <symbol id="icon-lineup" viewBox="0 0 24 24">
    <circle cx="12" cy="6" r="2.4" fill="none" stroke="currentColor" stroke-width="1.6" />
    <circle cx="7" cy="11.5" r="2.1" fill="none" stroke="currentColor" stroke-width="1.6" />
    <circle cx="17" cy="11.5" r="2.1" fill="none" stroke="currentColor" stroke-width="1.6" />
    <path d="M12 8.4V12" stroke="currentColor" stroke-width="1.6" stroke-linecap="round" />
    <path d="M7 13.6v4.4M17 13.6v4.4M12 12v6" stroke="currentColor" stroke-width="1.6" stroke-linecap="round" />
  </symbol>
  <symbol id="icon-tactics" viewBox="0 0 24 24">
    <circle cx="7" cy="7" r="2" fill="none" stroke="currentColor" stroke-width="1.8" />
    <circle cx="17" cy="17" r="2" fill="none" stroke="currentColor" stroke-width="1.8" />
    <path d="M9 9l6 6" stroke="currentColor" stroke-width="1.8" stroke-linecap="round" />
    <path d="M13 7h5v5" fill="none" stroke="currentColor" stroke-width="1.8" stroke-linecap="round" stroke-linejoin="round" />
    <path d="M6 18l4-4" fill="none" stroke="currentColor" stroke-width="1.8" stroke-linecap="round" stroke-linejoin="round" />
  </symbol>
  <symbol id="icon-opponent" viewBox="0 0 24 24">
    <circle cx="8" cy="7" r="2.5" fill="none" stroke="currentColor" stroke-width="1.6" />
    <circle cx="16" cy="7" r="2.5" fill="none" stroke="currentColor" stroke-width="1.6" />
    <path d="M4.5 18c.6-2.7 2.6-4 4.5-4s3.9 1.3 4.5 4" fill="none" stroke="currentColor" stroke-width="1.6" stroke-linecap="round" />
    <path d="M10.5 18c.6-2.7 2.6-4 4.5-4s3.9 1.3 4.5 4" fill="none" stroke="currentColor" stroke-width="1.6" stroke-linecap="round" />
  </symbol>
  <symbol id="icon-transfers" viewBox="0 0 24 24">
    <path d="M7 5h10l-2.5-2.5" fill="none" stroke="currentColor" stroke-width="1.8" stroke-linecap="round" stroke-linejoin="round" />
    <path d="M17 19H7l2.5 2.5" fill="none" stroke="currentColor" stroke-width="1.8" stroke-linecap="round" stroke-linejoin="round" />
    <path d="M7 12h10" stroke="currentColor" stroke-width="1.8" stroke-linecap="round" />
  </symbol>
  <symbol id="icon-staff" viewBox="0 0 24 24">
    <circle cx="12" cy="7" r="2.6" fill="none" stroke="currentColor" stroke-width="1.6" />
    <path d="M7 19c.4-3.4 2.7-5 5-5s4.6 1.6 5 5" fill="none" stroke="currentColor" stroke-width="1.6" stroke-linecap="round" />
    <path d="M5 19h14" stroke="currentColor" stroke-width="1.6" stroke-linecap="round" />
    <path d="M12 11v3" stroke="currentColor" stroke-width="1.6" stroke-linecap="round" />
  </symbol>
  <symbol id="icon-finances" viewBox="0 0 24 24">
    <ellipse cx="12" cy="7" rx="6" ry="3" fill="none" stroke="currentColor" stroke-width="1.8" />
    <path d="M6 7v5c0 1.7 2.7 3 6 3s6-1.3 6-3V7" fill="none" stroke="currentColor" stroke-width="1.8" />
    <path d="M6 12v5c0 1.7 2.7 3 6 3s6-1.3 6-3v-5" fill="none" stroke="currentColor" stroke-width="1.8" />
  </symbol>
  <symbol id="icon-decisions" viewBox="0 0 24 24">
    <path d="M4 12h16" stroke="currentColor" stroke-width="1.8" stroke-linecap="round" />
    <path d="M8 5v7a4 4 0 0 1-4 4" fill="none" stroke="currentColor" stroke-width="1.8" stroke-linecap="round" />
    <path d="M16 5v7a4 4 0 0 0 4 4" fill="none" stroke="currentColor" stroke-width="1.8" stroke-linecap="round" />
    <circle cx="12" cy="5" r="2" fill="currentColor" />
    <path d="M10 15h4" stroke="currentColor" stroke-width="1.8" stroke-linecap="round" />
  </symbol>
  <symbol id="icon-stadium" viewBox="0 0 24 24">
    <path d="M4 10c0-4 4-6 8-6s8 2 8 6" fill="none" stroke="currentColor" stroke-width="1.8" stroke-linecap="round" />
    <path d="M4 10v6c0 2.2 3.6 4 8 4s8-1.8 8-4v-6" fill="none" stroke="currentColor" stroke-width="1.8" />
    <path d="M4 13c1.8 1.2 4.4 2 8 2s6.2-.8 8-2" fill="none" stroke="currentColor" stroke-width="1.8" />
  </symbol>
  <symbol id="icon-club-shield" viewBox="0 0 24 24">
    <path d="M12 3 5 6v6c0 4.4 3 7.4 7 9 4-1.6 7-4.6 7-9V6l-7-3Z" fill="none" stroke="currentColor" stroke-width="1.8" stroke-linejoin="round" />
    <path d="M9 11h6l-3 6Z" fill="currentColor" />
  </symbol>
</svg>
